<svg width="184" height="25" viewBox="0 0 184 25" fill="none" xmlns="http://www.w3.org/2000/svg">
<path fill-rule="evenodd" clip-rule="evenodd" d="M43.5428 11.0153L40.3501 18.4374H38.7832L35.6141 11.0153V18.4374H32.9869V6.64451H36.5448L39.5843 14.1019L42.6356 6.64451H46.1817V18.4374H43.5545V11.0153H43.5428ZM60.5428 17.0118C59.2823 18.2135 57.7272 18.8026 55.8775 18.8026C54.0279 18.8026 52.4728 18.2017 51.2122 17.0118C49.9517 15.8102 49.3155 14.3258 49.3155 12.5468C49.3155 10.7679 49.9517 9.28347 51.2122 8.0818C52.4728 6.88014 54.0279 6.29108 55.8775 6.29108C57.7272 6.29108 59.2823 6.89192 60.5428 8.0818C61.8034 9.28347 62.4396 10.7679 62.4396 12.5468C62.4396 14.3258 61.8034 15.8102 60.5428 17.0118ZM59.6004 12.5586C59.6004 11.4747 59.2469 10.5558 58.5283 9.79006C57.8096 9.02429 56.9378 8.64729 55.8893 8.64729C54.8408 8.64729 53.969 9.02429 53.2504 9.79006C52.5317 10.5558 52.1783 11.4747 52.1783 12.5586C52.1783 13.6425 52.5317 14.5614 53.2504 15.3154C53.969 16.0694 54.8408 16.4464 55.8893 16.4464C56.9378 16.4464 57.8096 16.0694 58.5283 15.3154C59.2351 14.5496 59.6004 13.6307 59.6004 12.5586ZM74.633 8.18783C75.7993 9.21278 76.3766 10.6501 76.3766 12.4761C76.3766 14.314 75.8111 15.7631 74.6801 16.8233C73.5491 17.8954 71.8173 18.4256 69.4964 18.4256H65.3377V6.64451H69.6378C71.8055 6.64451 73.4784 7.16288 74.633 8.18783ZM72.642 15.1976C73.3135 14.5849 73.6434 13.7132 73.6434 12.5468C73.6434 11.3923 73.3135 10.4969 72.642 9.87252C71.9705 9.24813 70.9455 8.94182 69.5671 8.94182H68.0474V16.1165H69.7674C71.0162 16.1047 71.9705 15.8102 72.642 15.1976ZM82.703 15.657C83.1507 16.199 83.7633 16.4699 84.5173 16.4699C85.2713 16.4699 85.8839 16.199 86.3198 15.657C86.7675 15.1151 86.9913 14.3611 86.9913 13.4186V6.65629H89.6892V13.5011C89.6892 15.2093 89.2062 16.5288 88.2401 17.436C87.2741 18.3549 86.0371 18.8143 84.5173 18.8143C83.0093 18.8143 81.7605 18.3549 80.7945 17.436C79.8167 16.517 79.3336 15.2093 79.3336 13.5011V6.65629H82.0315V13.4186C82.0197 14.3611 82.2436 15.1033 82.703 15.657ZM96.2866 8.9536C96.0274 9.16566 95.8978 9.44841 95.8978 9.80184C95.8978 10.1553 96.051 10.438 96.369 10.6383C96.6871 10.8504 97.4058 11.086 98.5485 11.3687C99.6913 11.6515 100.575 12.0756 101.199 12.6411C101.824 13.2066 102.142 14.0312 102.142 15.1151C102.142 16.199 101.741 17.0825 100.928 17.7541C100.127 18.4256 99.0551 18.7672 97.7474 18.7672C95.8507 18.7672 94.1424 18.0604 92.6227 16.6349L94.2131 14.6556C95.509 15.7984 96.6989 16.3639 97.7945 16.3639C98.2894 16.3639 98.6781 16.2579 98.9491 16.0458C99.2318 15.8337 99.3732 15.5392 99.3732 15.1858C99.3732 14.8206 99.2201 14.5378 98.9255 14.3258C98.631 14.1137 98.042 13.9016 97.1584 13.6778C95.7682 13.3479 94.7433 12.912 94.0953 12.3701C93.4473 11.8282 93.1293 10.9917 93.1293 9.83718C93.1293 8.69442 93.5416 7.79906 94.3545 7.17466C95.1674 6.55026 96.1923 6.24396 97.4176 6.24396C98.2187 6.24396 99.0198 6.38533 99.8209 6.65629C100.622 6.93904 101.317 7.32782 101.918 7.8344L100.575 9.83718C99.5382 9.03607 98.4543 8.64729 97.3469 8.64729C96.8992 8.63551 96.5458 8.74154 96.2866 8.9536ZM117.54 16.2814C118.918 16.2814 120.037 15.7513 120.909 14.7028L122.7 16.4817C121.274 18.025 119.601 18.8026 117.669 18.8026C115.737 18.8026 114.147 18.2135 112.898 17.0354C111.649 15.8573 111.025 14.3729 111.025 12.5822C111.025 10.7914 111.661 9.29525 112.933 8.09358C114.206 6.89192 115.761 6.29108 117.599 6.29108C119.648 6.29108 121.38 7.04507 122.759 8.56483L121.015 10.4734C120.131 9.41306 119.036 8.88291 117.716 8.88291C116.668 8.88291 115.761 9.21279 115.018 9.87252C114.276 10.5323 113.899 11.4276 113.899 12.5586C113.899 13.6896 114.253 14.5849 114.96 15.2683C115.678 15.9398 116.538 16.2814 117.54 16.2814ZM135.282 10.5558C135.282 12.4408 134.54 13.666 133.043 14.2197L136.024 18.4374H132.784L130.169 14.6792H128.343V18.4374H125.716V6.64451H130.181C132.019 6.64451 133.326 6.95082 134.104 7.57522C134.893 8.18783 135.282 9.18922 135.282 10.5558ZM132.113 11.8164C132.443 11.5219 132.608 11.2038 132.608 10.5676C132.608 9.93143 132.443 9.49553 132.101 9.25991C131.759 9.02429 131.17 8.90648 130.334 8.90648H128.355V12.2523H130.275C131.17 12.2523 131.783 12.0991 132.113 11.8164ZM147.063 6.64451V8.98895H140.913V11.4158H147.063V13.6542H140.913V16.1047H147.063V18.4374H138.274V6.64451H147.063ZM159.209 18.4374L158.114 15.8926H153.166L152.07 18.4374H149.266L154.355 6.64451H156.9L161.99 18.4374H159.209ZM155.651 10.1553L154.167 13.5836H157.124L155.651 10.1553ZM168.764 8.91826V18.4374H166.136V8.91826H162.791V6.64451H172.098V8.91826H168.764ZM183.879 6.64451V8.98895H177.729V11.4158H183.879V13.6542H177.729V16.1047H183.879V18.4374H175.09V6.64451H183.879Z" fill="#1B1B1B"/>
<path fill-rule="evenodd" clip-rule="evenodd" d="M18.0397 12.4826C18.0397 8.21281 21.5011 4.7513 25.771 4.7513C25.771 3.06908 25.4379 1.46521 24.836 0C18.3596 0.478311 13.2537 5.88405 13.2537 12.4826C13.2537 19.3959 18.8579 25 25.771 25C26.0183 25 26.2637 24.9921 26.5074 24.978V20.1782C26.2626 20.2017 26.0169 20.2136 25.771 20.2139C21.5011 20.2139 18.0397 16.7524 18.0397 12.4826Z" fill="white"/>
<path fill-rule="evenodd" clip-rule="evenodd" d="M17.5055 14.319C17.3715 13.7161 17.3037 13.1003 17.3034 12.4826C17.3034 8.06165 20.6921 4.43403 25.0133 4.05044C24.9484 2.93665 24.7249 1.83783 24.3495 0.787201C18.5134 1.48923 13.99 6.45743 13.99 12.4826C13.99 13.3537 14.0854 14.2022 14.2647 15.0193C15.3714 14.9314 16.4613 14.6959 17.5055 14.319Z" fill="#990033"/>
<path fill-rule="evenodd" clip-rule="evenodd" d="M17.5054 14.3186C16.4612 14.6955 15.3713 14.9311 14.2646 15.0191C15.425 20.3062 20.1355 24.2637 25.7711 24.2637V20.9503C21.7252 20.9503 18.3444 18.112 17.5054 14.3186Z" fill="#FF9900"/>
<path fill-rule="evenodd" clip-rule="evenodd" d="M20.9464 5.52558C20.558 9.43183 17.2623 12.4827 13.2538 12.4827C8.98384 12.4827 5.52245 9.02126 5.52245 4.75133C5.52129 3.5495 5.80158 2.3641 6.34088 1.29006C4.88346 0.558392 3.29634 0.120619 1.66992 0.00167847C1.06873 1.46642 0.736389 3.06994 0.736389 4.75133C0.736389 11.6645 6.34064 17.2687 13.2538 17.2687C20.1669 17.2687 25.7711 11.6645 25.7711 4.75133C25.7711 4.50428 25.7631 4.25912 25.749 4.0156C23.9639 4.0202 22.3095 4.57768 20.9464 5.52558Z" fill="white"/>
<path fill-rule="evenodd" clip-rule="evenodd" d="M10.9023 12.8855C7.37038 11.8662 4.78608 8.61158 4.78608 4.75128C4.78608 3.6567 4.99602 2.61184 5.3742 1.65156C4.34847 1.21159 3.26506 0.920677 2.15691 0.787659C1.70289 2.05977 1.47142 3.40058 1.47266 4.75128C1.47266 10.1211 5.06553 14.6513 9.97823 16.0704C10.4273 15.0549 10.7381 13.9837 10.9023 12.8855Z" fill="#009900"/>
<path fill-rule="evenodd" clip-rule="evenodd" d="M21.6351 5.95175C21.0518 10.0595 17.5224 13.2189 13.2537 13.2189C12.4589 13.2188 11.6682 13.1068 10.9047 12.8862C10.7397 13.9843 10.4282 15.0553 9.97864 16.0706C11.0432 16.3777 12.1457 16.5331 13.2537 16.5323C19.7486 16.5323 25.0154 11.2766 25.0342 4.78613C23.8249 4.9003 22.66 5.29978 21.6351 5.95175Z" fill="#FF3300"/>
<path fill-rule="evenodd" clip-rule="evenodd" d="M5.67364 0.977325C5.08844 2.14921 4.78453 3.4414 4.78606 4.75127C4.78606 5.15889 4.81586 5.55933 4.87159 5.95152C7.03223 7.32249 8.46764 9.73419 8.46764 12.4826C8.46764 16.7524 5.00624 20.2139 0.736316 20.2139C0.487854 20.2139 0.242454 20.2011 0 20.1782V24.9779C0.24375 24.9921 0.489032 25 0.736316 25C7.64944 25 13.2537 19.3958 13.2537 12.4826C13.2537 7.32284 10.1316 2.89293 5.67364 0.977325Z" fill="white"/>
<path fill-rule="evenodd" clip-rule="evenodd" d="M6.04223 1.96173C5.69781 2.85139 5.52156 3.79725 5.52245 4.75125C5.52245 5.01267 5.53588 5.2708 5.56132 5.5255C7.76203 7.05468 9.20403 9.59963 9.20403 12.4826C9.20403 17.1592 5.41288 20.9502 0.736389 20.9502V24.2636C7.24295 24.2636 12.5175 18.9891 12.5175 12.4826C12.5175 7.88489 9.88332 3.90278 6.04223 1.96173Z" fill="#006699"/>
</svg>
